<?xml version="1.0" encoding="UTF-8"?>
<!DOCTYPE svg PUBLIC "-//W3C//DTD SVG 1.1//EN" "http://www.w3.org/Graphics/SVG/1.1/DTD/svg11.dtd">
<svg version="1.1" xmlns="http://www.w3.org/2000/svg" xmlns:xlink="http://www.w3.org/1999/xlink" x="0" y="0" width="1000" height="600" viewBox="0, 0, 1000, 600">
  <g id="Layer_1">
    <path d="M442.067,430.029 L498.067,325.363" fill-opacity="0" stroke="#9FB7FF" stroke-width="2"/>
    <path d="M469.136,178.877 L444.88,234.667" fill-opacity="0" stroke="#FA7561" stroke-width="2" stroke-linecap="round"/>
    <path d="M849.884,456.618 L806.884,408.618" fill-opacity="0" stroke="#F5A525" stroke-width="2"/>
    <g>
      <path d="M767.885,456.618 L933.885,456.618 C940.512,456.618 945.885,461.99 945.885,468.618 L945.885,531.618 C945.885,538.245 940.512,543.618 933.885,543.618 L767.885,543.618 C761.257,543.618 755.885,538.245 755.885,531.618 L755.885,468.618 C755.885,461.99 761.257,456.618 767.885,456.618 z" fill="#232939"/>
      <path d="M767.885,456.618 L933.885,456.618 C940.512,456.618 945.885,461.99 945.885,468.618 L945.885,531.618 C945.885,538.245 940.512,543.618 933.885,543.618 L767.885,543.618 C761.257,543.618 755.885,538.245 755.885,531.618 L755.885,468.618 C755.885,461.99 761.257,456.618 767.885,456.618 z" fill-opacity="0" stroke="#F5A525" stroke-width="2"/>
    </g>
    <g>
      <path d="M803.884,165.618 L969.884,165.618 C976.512,165.618 981.884,170.99 981.884,177.618 L981.884,240.618 C981.884,247.245 976.512,252.618 969.884,252.618 L803.884,252.618 C797.257,252.618 791.884,247.245 791.884,240.618 L791.884,177.618 C791.884,170.99 797.257,165.618 803.884,165.618 z" fill="#202636"/>
      <path d="M803.884,165.618 L969.884,165.618 C976.512,165.618 981.884,170.99 981.884,177.618 L981.884,240.618 C981.884,247.245 976.512,252.618 969.884,252.618 L803.884,252.618 C797.257,252.618 791.884,247.245 791.884,240.618 L791.884,177.618 C791.884,170.99 797.257,165.618 803.884,165.618 z" fill-opacity="0" stroke="#F5A525" stroke-width="2"/>
    </g>
    <g>
      <path d="M649.884,54.618 L815.884,54.618 C822.512,54.618 827.884,59.99 827.884,66.618 L827.884,129.618 C827.884,136.245 822.512,141.618 815.884,141.618 L649.884,141.618 C643.257,141.618 637.884,136.245 637.884,129.618 L637.884,66.618 C637.884,59.99 643.257,54.618 649.884,54.618 z" fill="#202636"/>
      <path d="M649.884,54.618 L815.884,54.618 C822.512,54.618 827.884,59.99 827.884,66.618 L827.884,129.618 C827.884,136.245 822.512,141.618 815.884,141.618 L649.884,141.618 C643.257,141.618 637.884,136.245 637.884,129.618 L637.884,66.618 C637.884,59.99 643.257,54.618 649.884,54.618 z" fill-opacity="0" stroke="#FA7561" stroke-width="2"/>
    </g>
    <g>
      <path d="M512.99,449.618 L714.811,449.618 C722.869,449.618 729.401,456.158 729.401,464.226 L729.401,540.92 C729.401,548.988 722.869,555.528 714.811,555.528 L512.99,555.528 C504.933,555.528 498.401,548.988 498.401,540.92 L498.401,464.226 C498.401,456.158 504.933,449.618 512.99,449.618 z" fill="#0B1223"/>
      <path d="M512.99,449.618 L714.811,449.618 C722.869,449.618 729.401,456.158 729.401,464.226 L729.401,540.92 C729.401,548.988 722.869,555.528 714.811,555.528 L512.99,555.528 C504.933,555.528 498.401,548.988 498.401,540.92 L498.401,464.226 C498.401,456.158 504.933,449.618 512.99,449.618 z" fill-opacity="0" stroke="#F5A525" stroke-width="2"/>
    </g>
    <g>
      <path d="M790.551,356.285 L822.551,356.285 C829.179,356.285 834.551,361.657 834.551,368.285 L834.551,399.285 C834.551,405.912 829.179,411.285 822.551,411.285 L790.551,411.285 C783.924,411.285 778.551,405.912 778.551,399.285 L778.551,368.285 C778.551,361.657 783.924,356.285 790.551,356.285 z" fill="#FAD598"/>
      <path d="M790.551,356.285 L822.551,356.285 C829.179,356.285 834.551,361.657 834.551,368.285 L834.551,399.285 C834.551,405.912 829.179,411.285 822.551,411.285 L790.551,411.285 C783.924,411.285 778.551,405.912 778.551,399.285 L778.551,368.285 C778.551,361.657 783.924,356.285 790.551,356.285 z" fill-opacity="0" stroke="#F5A525" stroke-width="2"/>
    </g>
    <g>
      <path d="M788.884,292.618 L820.884,292.618 C827.512,292.618 832.884,297.99 832.884,304.618 L832.884,335.618 C832.884,342.245 827.512,347.618 820.884,347.618 L788.884,347.618 C782.257,347.618 776.884,342.245 776.884,335.618 L776.884,304.618 C776.884,297.99 782.257,292.618 788.884,292.618 z" fill="#FAD598"/>
      <path d="M788.884,292.618 L820.884,292.618 C827.512,292.618 832.884,297.99 832.884,304.618 L832.884,335.618 C832.884,342.245 827.512,347.618 820.884,347.618 L788.884,347.618 C782.257,347.618 776.884,342.245 776.884,335.618 L776.884,304.618 C776.884,297.99 782.257,292.618 788.884,292.618 z" fill-opacity="0" stroke="#F5A525" stroke-width="2"/>
    </g>
    <g>
      <path d="M257.332,297.618 L364.675,297.618 C367.894,297.618 370.504,302.99 370.504,309.618 L370.504,339.618 C370.504,346.245 367.894,351.618 364.675,351.618 L257.332,351.618 C254.113,351.618 251.504,346.245 251.504,339.618 L251.504,309.618 C251.504,302.99 254.113,297.618 257.332,297.618 z" fill="#4AF6C2" fill-opacity="0.5"/>
      <path d="M257.332,297.618 L364.675,297.618 C367.894,297.618 370.504,302.99 370.504,309.618 L370.504,339.618 C370.504,346.245 367.894,351.618 364.675,351.618 L257.332,351.618 C254.113,351.618 251.504,346.245 251.504,339.618 L251.504,309.618 C251.504,302.99 254.113,297.618 257.332,297.618 z" fill-opacity="0" stroke="#4AF6C2" stroke-width="3"/>
    </g>
    <g>
      <path d="M715.884,186.504 L747.884,186.504 C754.512,186.504 759.884,191.876 759.884,198.504 L759.884,229.504 C759.884,236.131 754.512,241.504 747.884,241.504 L715.884,241.504 C709.257,241.504 703.884,236.131 703.884,229.504 L703.884,198.504 C703.884,191.876 709.257,186.504 715.884,186.504 z" fill="#FA7561" fill-opacity="0.467"/>
      <path d="M715.884,186.504 L747.884,186.504 C754.512,186.504 759.884,191.876 759.884,198.504 L759.884,229.504 C759.884,236.131 754.512,241.504 747.884,241.504 L715.884,241.504 C709.257,241.504 703.884,236.131 703.884,229.504 L703.884,198.504 C703.884,191.876 709.257,186.504 715.884,186.504 z" fill-opacity="0" stroke="#FA7561" stroke-width="2"/>
    </g>
    <g>
      <path d="M428.551,234.618 L460.551,234.618 C467.179,234.618 472.551,239.99 472.551,246.618 L472.551,277.618 C472.551,284.245 467.179,289.618 460.551,289.618 L428.551,289.618 C421.924,289.618 416.551,284.245 416.551,277.618 L416.551,246.618 C416.551,239.99 421.924,234.618 428.551,234.618 z" fill="#FA7561" fill-opacity="0.467"/>
      <path d="M428.551,234.618 L460.551,234.618 C467.179,234.618 472.551,239.99 472.551,246.618 L472.551,277.618 C472.551,284.245 467.179,289.618 460.551,289.618 L428.551,289.618 C421.924,289.618 416.551,284.245 416.551,277.618 L416.551,246.618 C416.551,239.99 421.924,234.618 428.551,234.618 z" fill-opacity="0" stroke="#FA7561" stroke-width="2"/>
    </g>
    <g>
      <path d="M393.504,298.618 L425.504,298.618 C432.131,298.618 437.504,303.99 437.504,310.618 L437.504,341.618 C437.504,348.245 432.131,353.618 425.504,353.618 L393.504,353.618 C386.876,353.618 381.504,348.245 381.504,341.618 L381.504,310.618 C381.504,303.99 386.876,298.618 393.504,298.618 z" fill="#58BFF4" fill-opacity="0.47"/>
      <path d="M393.504,298.618 L425.504,298.618 C432.131,298.618 437.504,303.99 437.504,310.618 L437.504,341.618 C437.504,348.245 432.131,353.618 425.504,353.618 L393.504,353.618 C386.876,353.618 381.504,348.245 381.504,341.618 L381.504,310.618 C381.504,303.99 386.876,298.618 393.504,298.618 z" fill-opacity="0" stroke="#58BFF4" stroke-width="3"/>
    </g>
    <g>
      <path d="M508.827,361.285 L691.942,361.285 C697.433,361.285 701.885,366.657 701.885,373.285 L701.885,403.285 C701.885,409.912 697.433,415.285 691.942,415.285 L508.827,415.285 C503.336,415.285 498.885,409.912 498.885,403.285 L498.885,373.285 C498.885,366.657 503.336,361.285 508.827,361.285 z" fill="#F5A525" fill-opacity="0.47"/>
      <path d="M508.827,361.285 L691.942,361.285 C697.433,361.285 701.885,366.657 701.885,373.285 L701.885,403.285 C701.885,409.912 697.433,415.285 691.942,415.285 L508.827,415.285 C503.336,415.285 498.885,409.912 498.885,403.285 L498.885,373.285 C498.885,366.657 503.336,361.285 508.827,361.285 z" fill-opacity="0" stroke="#F5A525" stroke-width="3"/>
    </g>
    <path d="M734.733,184.029 L734.884,142.618" fill-opacity="0" stroke="#FA7561" stroke-width="2"/>
    <path d="M295.703,258.923 L404.734,298.029" fill-opacity="0" stroke="#58BFF4" stroke-width="2"/>
    <path d="M804.884,292.618 L844.95,252.673" fill-opacity="0" stroke="#F5A525" stroke-width="2"/>
    <g>
      <path d="M855.884,459.618 L855.884,459.618 L855.884,460.618 L855.884,460.618 L855.884,459.618 z" fill="#FFFFFF"/>
      <path d="M855.884,459.618 L855.884,459.618 L855.884,460.618 L855.884,460.618 L855.884,459.618 z" fill-opacity="0" stroke="#000000" stroke-width="1"/>
    </g>
    <path d="M314.884,299.618 L314.884,299.618" fill-opacity="0" stroke="#58BFF4" stroke-width="3"/>
    <text transform="matrix(1, 0, 0, 1, 604.052, 389.785)">
      <tspan x="-45.667" y="8.5" font-family="Helvetica-Bold" font-size="31" fill="#000000">Space</tspan>
    </text>
    <text transform="matrix(1, 0, 0, 1, 315.336, 327.618)">
      <tspan x="-45.667" y="8.5" font-family="Helvetica-Bold" font-size="31" fill="#000000">Shift</tspan>
    </text>
    <text transform="matrix(1, 0, 0, 1, 445.217, 262.618)">
      <tspan x="-13.167" y="10.5" font-family="Helvetica-Bold" font-size="31" fill="#000000">S</tspan>
    </text>
    <text transform="matrix(1, 0, 0, 1, 410.836, 325.96)">
      <tspan x="-13.167" y="10.5" font-family="Helvetica-Bold" font-size="31" fill="#000000">Z</tspan>
    </text>
    <text transform="matrix(1, 0, 0, 1, 734.217, 213.618)">
      <tspan x="-13.167" y="10.5" font-family="Helvetica-Bold" font-size="31" fill="#000000">P</tspan>
    </text>
    <text transform="matrix(1, 0, 0, 1, 807.217, 320.618)">
      <tspan x="-13.167" y="11.5" font-family="LucidaGrande" font-size="32" kerning="0" fill="#1F1F1F">↑</tspan>
    </text>
    <text transform="matrix(1, 0, 0, 1, 807.884, 385.285)">
      <tspan x="-13.167" y="11.5" font-family="LucidaGrande" font-size="32" kerning="0" fill="#1F1F1F">↓</tspan>
    </text>
    <text transform="matrix(1, 0, 0, 1, 716.384, 80.618)">
      <tspan x="-66" y="3.5" font-family="Helvetica-Bold" font-size="20" fill="#FFFFFF">Clear Penalty</tspan>
    </text>
    <text transform="matrix(1, 0, 0, 1, 745.884, 117.118)">
      <tspan x="-94.5" y="-13" font-family="Helvetica" font-size="15" fill="#FFFFFF">Use this if you don't think </tspan>
      <tspan x="-94.5" y="5" font-family="Helvetica" font-size="15" fill="#FFFFFF">you deserve the penalty</tspan>
    </text>
    <g>
      <g>
        <path d="M390.668,92.736 L556.668,92.736 C563.296,92.736 568.668,98.109 568.668,104.736 L568.668,167.736 C568.668,174.363 563.296,179.736 556.668,179.736 L390.668,179.736 C384.041,179.736 378.668,174.363 378.668,167.736 L378.668,104.736 C378.668,98.109 384.041,92.736 390.668,92.736 z" fill="#202636"/>
        <path d="M390.668,92.736 L556.668,92.736 C563.296,92.736 568.668,98.109 568.668,104.736 L568.668,167.736 C568.668,174.363 563.296,179.736 556.668,179.736 L390.668,179.736 C384.041,179.736 378.668,174.363 378.668,167.736 L378.668,104.736 C378.668,98.109 384.041,92.736 390.668,92.736 z" fill-opacity="0" stroke="#FA7561" stroke-width="2"/>
      </g>
      <g>
        <path d="M390.668,92.736 L556.668,92.736 C563.296,92.736 568.668,98.109 568.668,104.736 L568.668,167.736 C568.668,174.363 563.296,179.736 556.668,179.736 L390.668,179.736 C384.041,179.736 378.668,174.363 378.668,167.736 L378.668,104.736 C378.668,98.109 384.041,92.736 390.668,92.736 z" fill-opacity="0" stroke="#FA7561" stroke-width="2"/>
        <text transform="matrix(1, 0, 0, 1, 457.168, 118.736)">
          <tspan x="-66" y="3.5" font-family="Helvetica-Bold" font-size="20" fill="#FFFFFF">Penalty Spin</tspan>
        </text>
        <text transform="matrix(1, 0, 0, 1, 474.168, 155.236)">
          <tspan x="-82" y="-13" font-family="Helvetica" font-size="15" fill="#FFFFFF">Clear your penalties by </tspan>
          <tspan x="-82" y="5" font-family="Helvetica" font-size="15" fill="#FFFFFF">doing a 360</tspan>
          <tspan x="-3.594" y="5" font-family="Helvetica" font-size="15" kerning="0" fill="#FFFFFF">° </tspan>
          <tspan x="6.572" y="5" font-family="Helvetica" font-size="15" fill="#FFFFFF">spin</tspan>
        </text>
      </g>
    </g>
    <text transform="matrix(1, 0, 0, 1, 616.841, 488.791)">
      <tspan x="-96.047" y="-10.825" font-family="Helvetica-Bold" font-size="20" fill="#FFFFFF">Trim (Auto VMG)</tspan>
    </text>
    <text transform="matrix(1, 0, 0, 1, 621.318, 526.878)">
      <tspan x="-100.195" y="-23.696" font-family="Helvetica" font-size="15" fill="#FFFFFF">Hit space once and your sails </tspan>
      <tspan x="-100.195" y="-5.696" font-family="Helvetica" font-size="15" fill="#FFFFFF">stay trimmed and the boat </tspan>
      <tspan x="-100.195" y="12.304" font-family="Helvetica" font-size="15" fill="#FFFFFF">sails at Max VMG</tspan>
    </text>
    <path d="M607.62,413.554 L607.885,449.618" fill-opacity="0" stroke="#F5A525" stroke-width="2"/>
    <path d="M214.445,323.203 L248.403,321.99" fill-opacity="0" stroke="#4AF6C2" stroke-width="2" stroke-linecap="round"/>
    <g>
      <g>
        <path d="M31.712,273.607 L204.701,273.607 C211.608,273.607 217.207,279.186 217.207,286.067 L217.207,351.481 C217.207,358.362 211.608,363.941 204.701,363.941 L31.712,363.941 C24.805,363.941 19.207,358.362 19.207,351.481 L19.207,286.067 C19.207,279.186 24.805,273.607 31.712,273.607 z" fill="#232939"/>
        <path d="M31.712,273.607 L204.701,273.607 C211.608,273.607 217.207,279.186 217.207,286.067 L217.207,351.481 C217.207,358.362 211.608,363.941 204.701,363.941 L31.712,363.941 C24.805,363.941 19.207,358.362 19.207,351.481 L19.207,286.067 C19.207,279.186 24.805,273.607 31.712,273.607 z" fill-opacity="0" stroke="#4AF6C2" stroke-width="2"/>
      </g>
      <text transform="matrix(1, 0, 0, 1, 116.426, 309.941)">
        <tspan x="-82.5" y="-5.5" font-family="Helvetica-Bold" font-size="20" fill="#FFFFFF">Bear Away Hard</tspan>
      </text>
      <text transform="matrix(1, 0, 0, 1, 120.926, 337.441)">
        <tspan x="-86" y="-13" font-family="Helvetica" font-size="15" kerning="0" fill="#FFFFFF">Hold shift while hitting </tspan>
        <tspan x="-86" y="5" font-family="Helvetica" font-size="15" kerning="0" fill="#FFFFFF">arrow keys to turn harder</tspan>
      </text>
    </g>
    <g>
      <g>
        <path d="M180.814,163.346 L358.855,163.346 C365.963,163.346 371.725,169.196 371.725,176.413 L371.725,245.017 C371.725,252.234 365.963,258.085 358.855,258.085 L180.814,258.085 C173.706,258.085 167.944,252.234 167.944,245.017 L167.944,176.413 C167.944,169.196 173.706,163.346 180.814,163.346 z" fill="#202636"/>
        <path d="M180.814,163.346 L358.855,163.346 C365.963,163.346 371.725,169.196 371.725,176.413 L371.725,245.017 C371.725,252.234 365.963,258.085 358.855,258.085 L180.814,258.085 C173.706,258.085 167.944,252.234 167.944,245.017 L167.944,176.413 C167.944,169.196 173.706,163.346 180.814,163.346 z" fill-opacity="0" stroke="#58BFF4" stroke-width="2"/>
      </g>
      <text transform="matrix(1, 0, 0, 1, 269.871, 200.022)">
        <tspan x="-88.484" y="-6.657" font-family="Helvetica-Bold" font-size="20" fill="#FFFFFF">Zoom</tspan>
      </text>
      <text transform="matrix(1, 0, 0, 1, 278.987, 228.821)">
        <tspan x="-96.528" y="-14.322" font-family="Helvetica" font-size="15" kerning="0" fill="#FFFFFF">Toggle between "birdseye" </tspan>
        <tspan x="-96.528" y="3.678" font-family="Helvetica" font-size="15" kerning="0" fill="#FFFFFF">and "follow" mode</tspan>
      </text>
    </g>
    <text transform="matrix(1, 0, 0, 1, 870.384, 191.618)">
      <tspan x="-66" y="3.5" font-family="Helvetica-Bold" font-size="20" fill="#FFFFFF">Head up</tspan>
    </text>
    <text transform="matrix(1, 0, 0, 1, 894.384, 228.118)">
      <tspan x="-89" y="-13" font-family="Helvetica" font-size="15" fill="#FFFFFF">Head up 5</tspan>
      <tspan x="-19.779" y="-13" font-family="Helvetica" font-size="15" kerning="0" fill="#FFFFFF">° </tspan>
      <tspan x="-89" y="5" font-family="Helvetica" font-size="15" kerning="0" fill="#FFFFFF">(hold shift to turn harder)</tspan>
    </text>
    <text transform="matrix(1, 0, 0, 1, 834.385, 482.618)">
      <tspan x="-66" y="3.5" font-family="Helvetica-Bold" font-size="20" fill="#FFFFFF">Head up</tspan>
    </text>
    <text transform="matrix(1, 0, 0, 1, 858.384, 519.118)">
      <tspan x="-89" y="-13" font-family="Helvetica" font-size="15" fill="#FFFFFF">Head up 5</tspan>
      <tspan x="-19.779" y="-13" font-family="Helvetica" font-size="15" kerning="0" fill="#FFFFFF">° </tspan>
      <tspan x="-89" y="5" font-family="Helvetica" font-size="15" kerning="0" fill="#FFFFFF">(hold shift to turn harder)</tspan>
    </text>
    <g>
      <path d="M510.884,299.951 L542.884,299.951 C549.512,299.951 554.884,305.324 554.884,311.951 L554.884,342.951 C554.884,349.579 549.512,354.951 542.884,354.951 L510.884,354.951 C504.257,354.951 498.884,349.579 498.884,342.951 L498.884,311.951 C498.884,305.324 504.257,299.951 510.884,299.951 z" fill="#9FB7FF" fill-opacity="0.47"/>
      <path d="M510.884,299.951 L542.884,299.951 C549.512,299.951 554.884,305.324 554.884,311.951 L554.884,342.951 C554.884,349.579 549.512,354.951 542.884,354.951 L510.884,354.951 C504.257,354.951 498.884,349.579 498.884,342.951 L498.884,311.951 C498.884,305.324 504.257,299.951 510.884,299.951 z" fill-opacity="0" stroke="#9FB7FF" stroke-width="3"/>
    </g>
    <text transform="matrix(1, 0, 0, 1, 528.217, 326.951)">
      <tspan x="-13.167" y="10.5" font-family="Helvetica-Bold" font-size="31" fill="#000000">C</tspan>
    </text>
    <g>
      <g>
        <path d="M263.674,396.285 L426.762,396.285 C433.273,396.285 438.551,401.5 438.551,407.933 L438.551,469.089 C438.551,475.522 433.273,480.738 426.762,480.738 L263.674,480.738 C257.163,480.738 251.884,475.522 251.884,469.089 L251.884,407.933 C251.884,401.5 257.163,396.285 263.674,396.285 z" fill="#232939"/>
        <path d="M263.674,396.285 L426.762,396.285 C433.273,396.285 438.551,401.5 438.551,407.933 L438.551,469.089 C438.551,475.522 433.273,480.738 426.762,480.738 L263.674,480.738 C257.163,480.738 251.884,475.522 251.884,469.089 L251.884,407.933 C251.884,401.5 257.163,396.285 263.674,396.285 z" fill-opacity="0" stroke="#9FB7FF" stroke-width="2"/>
      </g>
      <text transform="matrix(1, 0, 0, 1, 344.456, 429.944)">
        <tspan x="-77" y="-4.032" font-family="Helvetica-Bold" font-size="20" fill="#FFFFFF">Jump to Chat</tspan>
      </text>
      <text transform="matrix(1, 0, 0, 1, 348.656, 455.796)">
        <tspan x="-80.267" y="-11.322" font-family="Helvetica" font-size="15" kerning="0" fill="#FFFFFF">Quick jump to chat, esc. </tspan>
        <tspan x="-80.267" y="6.678" font-family="Helvetica" font-size="15" kerning="0" fill="#FFFFFF">To exit</tspan>
      </text>
    </g>
  </g>
  <g id="Layer_2" display="none">
    <g>
      <path d="M116.5,369.044 L282.5,369.044 C289.127,369.044 294.5,374.416 294.5,381.044 L294.5,444.044 C294.5,450.671 289.127,456.044 282.5,456.044 L116.5,456.044 C109.873,456.044 104.5,450.671 104.5,444.044 L104.5,381.044 C104.5,374.416 109.873,369.044 116.5,369.044 z" fill="#0B1223"/>
      <path d="M116.5,369.044 L282.5,369.044 C289.127,369.044 294.5,374.416 294.5,381.044 L294.5,444.044 C294.5,450.671 289.127,456.044 282.5,456.044 L116.5,456.044 C109.873,456.044 104.5,450.671 104.5,444.044 L104.5,381.044 C104.5,374.416 109.873,369.044 116.5,369.044 z" fill-opacity="0" stroke="#4AF6C2" stroke-width="2"/>
    </g>
    <g>
      <path d="M404.606,437.044 L606.427,437.044 C614.484,437.044 621.016,443.584 621.016,451.652 L621.016,528.346 C621.016,536.414 614.484,542.954 606.427,542.954 L404.606,542.954 C396.548,542.954 390.016,536.414 390.016,528.346 L390.016,451.652 C390.016,443.584 396.548,437.044 404.606,437.044 z" fill="#0B1223"/>
      <path d="M404.606,437.044 L606.427,437.044 C614.484,437.044 621.016,443.584 621.016,451.652 L621.016,528.346 C621.016,536.414 614.484,542.954 606.427,542.954 L404.606,542.954 C396.548,542.954 390.016,536.414 390.016,528.346 L390.016,451.652 C390.016,443.584 396.548,437.044 404.606,437.044 z" fill-opacity="0" stroke="#F5A525" stroke-width="2"/>
    </g>
    <g>
      <path d="M681.5,341.044 L713.5,341.044 C720.127,341.044 725.5,346.416 725.5,353.044 L725.5,384.044 C725.5,390.671 720.127,396.044 713.5,396.044 L681.5,396.044 C674.873,396.044 669.5,390.671 669.5,384.044 L669.5,353.044 C669.5,346.416 674.873,341.044 681.5,341.044 z" fill="#FAD598"/>
      <path d="M681.5,341.044 L713.5,341.044 C720.127,341.044 725.5,346.416 725.5,353.044 L725.5,384.044 C725.5,390.671 720.127,396.044 713.5,396.044 L681.5,396.044 C674.873,396.044 669.5,390.671 669.5,384.044 L669.5,353.044 C669.5,346.416 674.873,341.044 681.5,341.044 z" fill-opacity="0" stroke="#F5A525" stroke-width="2"/>
    </g>
    <g>
      <path d="M680.5,280.044 L712.5,280.044 C719.127,280.044 724.5,285.416 724.5,292.044 L724.5,323.044 C724.5,329.671 719.127,335.044 712.5,335.044 L680.5,335.044 C673.873,335.044 668.5,329.671 668.5,323.044 L668.5,292.044 C668.5,285.416 673.873,280.044 680.5,280.044 z" fill="#FAD598"/>
      <path d="M680.5,280.044 L712.5,280.044 C719.127,280.044 724.5,285.416 724.5,292.044 L724.5,323.044 C724.5,329.671 719.127,335.044 712.5,335.044 L680.5,335.044 C673.873,335.044 668.5,329.671 668.5,323.044 L668.5,292.044 C668.5,285.416 673.873,280.044 680.5,280.044 z" fill-opacity="0" stroke="#F5A525" stroke-width="2"/>
    </g>
    <g>
      <path d="M200.329,285.044 L307.671,285.044 C310.89,285.044 313.5,290.416 313.5,297.044 L313.5,327.044 C313.5,333.671 310.89,339.044 307.671,339.044 L200.329,339.044 C197.11,339.044 194.5,333.671 194.5,327.044 L194.5,297.044 C194.5,290.416 197.11,285.044 200.329,285.044 z" fill="#4AF6C2" fill-opacity="0.5"/>
      <path d="M200.329,285.044 L307.671,285.044 C310.89,285.044 313.5,290.416 313.5,297.044 L313.5,327.044 C313.5,333.671 310.89,339.044 307.671,339.044 L200.329,339.044 C197.11,339.044 194.5,333.671 194.5,327.044 L194.5,297.044 C194.5,290.416 197.11,285.044 200.329,285.044 z" fill-opacity="0" stroke="#4AF6C2" stroke-width="3"/>
    </g>
    <g>
      <path d="M567.5,183.044 L599.5,183.044 C606.127,183.044 611.5,188.416 611.5,195.044 L611.5,226.044 C611.5,232.671 606.127,238.044 599.5,238.044 L567.5,238.044 C560.873,238.044 555.5,232.671 555.5,226.044 L555.5,195.044 C555.5,188.416 560.873,183.044 567.5,183.044 z" fill="#FA7561" fill-opacity="0.467"/>
      <path d="M567.5,183.044 L599.5,183.044 C606.127,183.044 611.5,188.416 611.5,195.044 L611.5,226.044 C611.5,232.671 606.127,238.044 599.5,238.044 L567.5,238.044 C560.873,238.044 555.5,232.671 555.5,226.044 L555.5,195.044 C555.5,188.416 560.873,183.044 567.5,183.044 z" fill-opacity="0" stroke="#FA7561" stroke-width="2"/>
    </g>
    <g>
      <path d="M379.5,224.044 L411.5,224.044 C418.127,224.044 423.5,229.416 423.5,236.044 L423.5,267.044 C423.5,273.671 418.127,279.044 411.5,279.044 L379.5,279.044 C372.873,279.044 367.5,273.671 367.5,267.044 L367.5,236.044 C367.5,229.416 372.873,224.044 379.5,224.044 z" fill="#FA7561" fill-opacity="0.467"/>
      <path d="M379.5,224.044 L411.5,224.044 C418.127,224.044 423.5,229.416 423.5,236.044 L423.5,267.044 C423.5,273.671 418.127,279.044 411.5,279.044 L379.5,279.044 C372.873,279.044 367.5,273.671 367.5,267.044 L367.5,236.044 C367.5,229.416 372.873,224.044 379.5,224.044 z" fill-opacity="0" stroke="#FA7561" stroke-width="2"/>
    </g>
    <g>
      <path d="M336.5,286.044 L368.5,286.044 C375.127,286.044 380.5,291.416 380.5,298.044 L380.5,329.044 C380.5,335.671 375.127,341.044 368.5,341.044 L336.5,341.044 C329.873,341.044 324.5,335.671 324.5,329.044 L324.5,298.044 C324.5,291.416 329.873,286.044 336.5,286.044 z" fill="#58BFF4" fill-opacity="0.47"/>
      <path d="M336.5,286.044 L368.5,286.044 C375.127,286.044 380.5,291.416 380.5,298.044 L380.5,329.044 C380.5,335.671 375.127,341.044 368.5,341.044 L336.5,341.044 C329.873,341.044 324.5,335.671 324.5,329.044 L324.5,298.044 C324.5,291.416 329.873,286.044 336.5,286.044 z" fill-opacity="0" stroke="#58BFF4" stroke-width="3"/>
    </g>
    <g>
      <path d="M386.5,346.044 L607.5,346.044 C614.127,346.044 619.5,351.416 619.5,358.044 L619.5,388.044 C619.5,394.671 614.127,400.044 607.5,400.044 L386.5,400.044 C379.873,400.044 374.5,394.671 374.5,388.044 L374.5,358.044 C374.5,351.416 379.873,346.044 386.5,346.044 z" fill="#F5A525" fill-opacity="0.47"/>
      <path d="M386.5,346.044 L607.5,346.044 C614.127,346.044 619.5,351.416 619.5,358.044 L619.5,388.044 C619.5,394.671 614.127,400.044 607.5,400.044 L386.5,400.044 C379.873,400.044 374.5,394.671 374.5,388.044 L374.5,358.044 C374.5,351.416 379.873,346.044 386.5,346.044 z" fill-opacity="0" stroke="#F5A525" stroke-width="3"/>
    </g>
    <path d="M358.618,172.092 L392.698,223.519" fill-opacity="0" stroke="#FA7561" stroke-width="2" stroke-linecap="round"/>
    <path d="M586.5,183.044 L586.5,130.044" fill-opacity="0" stroke="#FA7561" stroke-width="2"/>
    <path d="M255.5,340.043 L198.044,368.588" fill-opacity="0" stroke="#4AF6C2" stroke-width="2" stroke-linecap="round"/>
    <path d="M256.678,216.018 L349.5,286.043" fill-opacity="0" stroke="#58BFF4" stroke-width="2"/>
    <path d="M696.5,280.044 L736.566,240.098" fill-opacity="0" stroke="#F5A525" stroke-width="2"/>
    <path d="M741.5,444.044 L698.5,396.044" fill-opacity="0" stroke="#F5A525" stroke-width="2"/>
    <g>
      <path d="M747.5,447.044 L747.5,447.044 L747.5,448.044 L747.5,448.044 L747.5,447.044 z" fill="#FFFFFF"/>
      <path d="M747.5,447.044 L747.5,447.044 L747.5,448.044 L747.5,448.044 L747.5,447.044 z" fill-opacity="0" stroke="#000000" stroke-width="1"/>
    </g>
    <path d="M206.5,287.044 L206.5,287.044" fill-opacity="0" stroke="#58BFF4" stroke-width="3"/>
    <text transform="matrix(1, 0, 0, 1, 495.667, 374.544)">
      <tspan x="-45.667" y="8.5" font-family="Helvetica-Bold" font-size="31" fill="#000000">Space</tspan>
    </text>
    <text transform="matrix(1, 0, 0, 1, 258.333, 315.044)">
      <tspan x="-45.667" y="8.5" font-family="Helvetica-Bold" font-size="31" fill="#000000">Shift</tspan>
    </text>
    <text transform="matrix(1, 0, 0, 1, 396.833, 252.044)">
      <tspan x="-13.167" y="10.5" font-family="Helvetica-Bold" font-size="31" fill="#000000">S</tspan>
    </text>
    <text transform="matrix(1, 0, 0, 1, 353.833, 316.044)">
      <tspan x="-13.167" y="10.5" font-family="Helvetica-Bold" font-size="31" fill="#000000">Z</tspan>
    </text>
    <text transform="matrix(1, 0, 0, 1, 585.833, 211.044)">
      <tspan x="-13.167" y="10.5" font-family="Helvetica-Bold" font-size="31" fill="#000000">P</tspan>
    </text>
    <text transform="matrix(1, 0, 0, 1, 698.833, 308.044)">
      <tspan x="-13.167" y="11.5" font-family="LucidaGrande" font-size="32" kerning="0" fill="#1F1F1F">↑</tspan>
    </text>
    <text transform="matrix(1, 0, 0, 1, 698.833, 370.044)">
      <tspan x="-13.167" y="11.5" font-family="LucidaGrande" font-size="32" kerning="0" fill="#1F1F1F">↓</tspan>
    </text>
    <g>
      <text transform="matrix(1, 0, 0, 1, 568, 68.044)">
        <tspan x="-66" y="3.5" font-family="Helvetica-Bold" font-size="20" fill="#000000">Clear Penalty</tspan>
      </text>
      <text transform="matrix(1, 0, 0, 1, 597.5, 104.544)">
        <tspan x="-94.5" y="-13" font-family="Helvetica" font-size="15" fill="#000000">Use this if you don't think </tspan>
        <tspan x="-94.5" y="5" font-family="Helvetica" font-size="15" fill="#000000">you deserve the penalty</tspan>
      </text>
      <path d="M501.5,42.044 L667.5,42.044 C674.127,42.044 679.5,47.416 679.5,54.044 L679.5,117.044 C679.5,123.671 674.127,129.044 667.5,129.044 L501.5,129.044 C494.873,129.044 489.5,123.671 489.5,117.044 L489.5,54.044 C489.5,47.416 494.873,42.044 501.5,42.044 z" fill-opacity="0" stroke="#FA7561" stroke-width="2"/>
    </g>
    <g>
      <path d="M282.5,85.044 L448.5,85.044 C455.127,85.044 460.5,90.416 460.5,97.044 L460.5,160.044 C460.5,166.671 455.127,172.044 448.5,172.044 L282.5,172.044 C275.873,172.044 270.5,166.671 270.5,160.044 L270.5,97.044 C270.5,90.416 275.873,85.044 282.5,85.044 z" fill-opacity="0" stroke="#FA7561" stroke-width="2"/>
      <text transform="matrix(1, 0, 0, 1, 349, 111.044)">
        <tspan x="-66" y="3.5" font-family="Helvetica-Bold" font-size="20" fill="#000000">Penalty Spin</tspan>
      </text>
      <path d="M282.5,85.044 L448.5,85.044 C455.127,85.044 460.5,90.416 460.5,97.044 L460.5,160.044 C460.5,166.671 455.127,172.044 448.5,172.044 L282.5,172.044 C275.873,172.044 270.5,166.671 270.5,160.044 L270.5,97.044 C270.5,90.416 275.873,85.044 282.5,85.044 z" fill-opacity="0" stroke="#FA7561" stroke-width="2"/>
      <text transform="matrix(1, 0, 0, 1, 366, 147.544)">
        <tspan x="-82" y="-13" font-family="Helvetica" font-size="15" fill="#000000">Clear your penalties by </tspan>
        <tspan x="-82" y="5" font-family="Helvetica" font-size="15" fill="#000000">doing a 360</tspan>
        <tspan x="-3.594" y="5" font-family="Helvetica" font-size="15" kerning="0" fill="#000000">° </tspan>
        <tspan x="6.572" y="5" font-family="Helvetica" font-size="15" fill="#000000">spin</tspan>
      </text>
    </g>
    <text transform="matrix(1, 0, 0, 1, 508.456, 476.216)">
      <tspan x="-96.047" y="-10.825" font-family="Helvetica-Bold" font-size="20" fill="#FFFFFF">Trim (Auto VMG)</tspan>
    </text>
    <text transform="matrix(1, 0, 0, 1, 512.933, 514.304)">
      <tspan x="-100.195" y="-23.696" font-family="Helvetica" font-size="15" fill="#FFFFFF">Hit space once and your sails </tspan>
      <tspan x="-100.195" y="-5.696" font-family="Helvetica" font-size="15" fill="#FFFFFF">stay trimmed and the boat </tspan>
      <tspan x="-100.195" y="12.304" font-family="Helvetica" font-size="15" fill="#FFFFFF">sails at Max VMG</tspan>
    </text>
    <path d="M499.235,400.979 L499.5,437.044" fill-opacity="0" stroke="#F5A525" stroke-width="2"/>
    <text transform="matrix(1, 0, 0, 1, 199.5, 404.043)">
      <tspan x="-82.5" y="-5.5" font-family="Helvetica-Bold" font-size="20" fill="#FFFFFF">Bear Away Hard</tspan>
    </text>
    <text transform="matrix(1, 0, 0, 1, 204, 431.544)">
      <tspan x="-86" y="-13" font-family="Helvetica" font-size="15" kerning="0" fill="#FFFFFF">Hold shift while hitting </tspan>
      <tspan x="-86" y="5" font-family="Helvetica" font-size="15" kerning="0" fill="#FFFFFF">arrow keys to turn harder</tspan>
    </text>
    <g>
      <text transform="matrix(1, 0, 0, 1, 154.376, 209.044)">
        <tspan x="-89.304" y="-5.5" font-family="Helvetica-Bold" font-size="20" fill="#000000">Zoom</tspan>
      </text>
      <text transform="matrix(1, 0, 0, 1, 163.577, 236.544)">
        <tspan x="-97.423" y="-13" font-family="Helvetica" font-size="15" kerning="0" fill="#000000">Toggle between "birdseye" </tspan>
        <tspan x="-97.423" y="5" font-family="Helvetica" font-size="15" kerning="0" fill="#000000">and "follow" mode</tspan>
      </text>
      <path d="M64.49,174.044 L244.18,174.044 C251.354,174.044 257.17,179.416 257.17,186.044 L257.17,249.044 C257.17,255.671 251.354,261.044 244.18,261.044 L64.49,261.044 C57.316,261.044 51.5,255.671 51.5,249.044 L51.5,186.044 C51.5,179.416 57.316,174.044 64.49,174.044 z" fill-opacity="0" stroke="#58BFF4" stroke-width="2"/>
    </g>
    <g>
      <text transform="matrix(1, 0, 0, 1, 722, 179.044)">
        <tspan x="-66" y="3.5" font-family="Helvetica-Bold" font-size="20" fill="#000000">Head up</tspan>
      </text>
      <text transform="matrix(1, 0, 0, 1, 746, 215.544)">
        <tspan x="-89" y="-13" font-family="Helvetica" font-size="15" fill="#000000">Head up 5</tspan>
        <tspan x="-19.779" y="-13" font-family="Helvetica" font-size="15" kerning="0" fill="#000000">° </tspan>
        <tspan x="-89" y="5" font-family="Helvetica" font-size="15" kerning="0" fill="#000000">(hold shift to turn harder)</tspan>
      </text>
      <path d="M655.5,153.044 L821.5,153.044 C828.127,153.044 833.5,158.416 833.5,165.044 L833.5,228.044 C833.5,234.671 828.127,240.044 821.5,240.044 L655.5,240.044 C648.873,240.044 643.5,234.671 643.5,228.044 L643.5,165.044 C643.5,158.416 648.873,153.044 655.5,153.044 z" fill-opacity="0" stroke="#F5A525" stroke-width="2"/>
    </g>
    <g>
      <text transform="matrix(1, 0, 0, 1, 726, 470.044)">
        <tspan x="-66" y="3.5" font-family="Helvetica-Bold" font-size="20" fill="#000000">Head up</tspan>
      </text>
      <text transform="matrix(1, 0, 0, 1, 750, 506.544)">
        <tspan x="-89" y="-13" font-family="Helvetica" font-size="15" fill="#000000">Head up 5</tspan>
        <tspan x="-19.779" y="-13" font-family="Helvetica" font-size="15" kerning="0" fill="#000000">° </tspan>
        <tspan x="-89" y="5" font-family="Helvetica" font-size="15" kerning="0" fill="#000000">(hold shift to turn harder)</tspan>
      </text>
      <path d="M659.5,444.044 L825.5,444.044 C832.127,444.044 837.5,449.416 837.5,456.044 L837.5,519.044 C837.5,525.671 832.127,531.044 825.5,531.044 L659.5,531.044 C652.873,531.044 647.5,525.671 647.5,519.044 L647.5,456.044 C647.5,449.416 652.873,444.044 659.5,444.044 z" fill-opacity="0" stroke="#F5A525" stroke-width="2"/>
    </g>
  </g>
</svg>
