<?xml version="1.0" encoding="UTF-8"?>
<!DOCTYPE svg PUBLIC "-//W3C//DTD SVG 1.1//EN" "http://www.w3.org/Graphics/SVG/1.1/DTD/svg11.dtd">
<svg version="1.1" xmlns="http://www.w3.org/2000/svg" xmlns:xlink="http://www.w3.org/1999/xlink" x="0" y="0" width="1200" height="600" viewBox="0, 0, 1200, 600">
  <g id="Layer_1">
    <path d="M911.5,335.5 L956.5,317.5" fill-opacity="0" stroke="#F5A525" stroke-width="2"/>
    <path d="M733.5,176.5 L733.884,142.618" fill-opacity="0" stroke="#FA7561" stroke-width="2"/>
    <path d="M437.5,429.5 L497.067,324.363" fill-opacity="0" stroke="#9FB7FF" stroke-width="2"/>
    <path d="M469.136,178.877 L444.88,234.667" fill-opacity="0" stroke="#FA7561" stroke-width="2" stroke-linecap="round"/>
    <path d="M944.5,434.5 L912.5,396.5" fill-opacity="0" stroke="#F5A525" stroke-width="2"/>
    <g>
      <path d="M956.885,392.618 L1122.885,392.618 C1129.512,392.618 1134.885,397.99 1134.885,404.618 L1134.885,467.618 C1134.885,474.245 1129.512,479.618 1122.885,479.618 L956.885,479.618 C950.257,479.618 944.885,474.245 944.885,467.618 L944.885,404.618 C944.885,397.99 950.257,392.618 956.885,392.618 z" fill="#232939"/>
      <path d="M956.885,392.618 L1122.885,392.618 C1129.512,392.618 1134.885,397.99 1134.885,404.618 L1134.885,467.618 C1134.885,474.245 1129.512,479.618 1122.885,479.618 L956.885,479.618 C950.257,479.618 944.885,474.245 944.885,467.618 L944.885,404.618 C944.885,397.99 950.257,392.618 956.885,392.618 z" fill-opacity="0" stroke="#F5A525" stroke-width="2"/>
    </g>
    <g>
      <path d="M967.055,268.734 L1133.055,268.734 C1139.683,268.734 1145.055,274.106 1145.055,280.734 L1145.055,343.734 C1145.055,350.361 1139.683,355.734 1133.055,355.734 L967.055,355.734 C960.428,355.734 955.055,350.361 955.055,343.734 L955.055,280.734 C955.055,274.106 960.428,268.734 967.055,268.734 z" fill="#202636"/>
      <path d="M967.055,268.734 L1133.055,268.734 C1139.683,268.734 1145.055,274.106 1145.055,280.734 L1145.055,343.734 C1145.055,350.361 1139.683,355.734 1133.055,355.734 L967.055,355.734 C960.428,355.734 955.055,350.361 955.055,343.734 L955.055,280.734 C955.055,274.106 960.428,268.734 967.055,268.734 z" fill-opacity="0" stroke="#F5A525" stroke-width="2"/>
    </g>
    <g>
      <path d="M649.884,54.618 L815.884,54.618 C822.512,54.618 827.884,59.99 827.884,66.618 L827.884,129.618 C827.884,136.245 822.512,141.618 815.884,141.618 L649.884,141.618 C643.257,141.618 637.884,136.245 637.884,129.618 L637.884,66.618 C637.884,59.99 643.257,54.618 649.884,54.618 z" fill="#202636"/>
      <path d="M649.884,54.618 L815.884,54.618 C822.512,54.618 827.884,59.99 827.884,66.618 L827.884,129.618 C827.884,136.245 822.512,141.618 815.884,141.618 L649.884,141.618 C643.257,141.618 637.884,136.245 637.884,129.618 L637.884,66.618 C637.884,59.99 643.257,54.618 649.884,54.618 z" fill-opacity="0" stroke="#FA7561" stroke-width="2"/>
    </g>
    <g>
      <path d="M535.99,450.618 L737.811,450.618 C745.869,450.618 752.401,457.158 752.401,465.226 L752.401,541.92 C752.401,549.988 745.869,556.528 737.811,556.528 L535.99,556.528 C527.933,556.528 521.401,549.988 521.401,541.92 L521.401,465.226 C521.401,457.158 527.933,450.618 535.99,450.618 z" fill="#0B1223"/>
      <path d="M535.99,450.618 L737.811,450.618 C745.869,450.618 752.401,457.158 752.401,465.226 L752.401,541.92 C752.401,549.988 745.869,556.528 737.811,556.528 L535.99,556.528 C527.933,556.528 521.401,549.988 521.401,541.92 L521.401,465.226 C521.401,457.158 527.933,450.618 535.99,450.618 z" fill-opacity="0" stroke="#F5A525" stroke-width="2"/>
    </g>
    <g>
      <path d="M868.551,368.69 L900.551,368.69 C907.179,368.69 912.551,374.062 912.551,380.69 L912.551,411.69 C912.551,418.317 907.179,423.69 900.551,423.69 L868.551,423.69 C861.924,423.69 856.551,418.317 856.551,411.69 L856.551,380.69 C856.551,374.062 861.924,368.69 868.551,368.69 z" fill="#FAD598"/>
      <path d="M868.551,368.69 L900.551,368.69 C907.179,368.69 912.551,374.062 912.551,380.69 L912.551,411.69 C912.551,418.317 907.179,423.69 900.551,423.69 L868.551,423.69 C861.924,423.69 856.551,418.317 856.551,411.69 L856.551,380.69 C856.551,374.062 861.924,368.69 868.551,368.69 z" fill-opacity="0" stroke="#F5A525" stroke-width="2"/>
    </g>
    <g>
      <path d="M866.884,305.023 L898.884,305.023 C905.512,305.023 910.884,310.396 910.884,317.023 L910.884,348.023 C910.884,354.651 905.512,360.023 898.884,360.023 L866.884,360.023 C860.257,360.023 854.884,354.651 854.884,348.023 L854.884,317.023 C854.884,310.396 860.257,305.023 866.884,305.023 z" fill="#FAD598"/>
      <path d="M866.884,305.023 L898.884,305.023 C905.512,305.023 910.884,310.396 910.884,317.023 L910.884,348.023 C910.884,354.651 905.512,360.023 898.884,360.023 L866.884,360.023 C860.257,360.023 854.884,354.651 854.884,348.023 L854.884,317.023 C854.884,310.396 860.257,305.023 866.884,305.023 z" fill-opacity="0" stroke="#F5A525" stroke-width="2"/>
    </g>
    <g>
      <path d="M257.332,297.618 L364.675,297.618 C367.894,297.618 370.504,302.99 370.504,309.618 L370.504,339.618 C370.504,346.245 367.894,351.618 364.675,351.618 L257.332,351.618 C254.113,351.618 251.504,346.245 251.504,339.618 L251.504,309.618 C251.504,302.99 254.113,297.618 257.332,297.618 z" fill="#9CF3D9"/>
      <path d="M257.332,297.618 L364.675,297.618 C367.894,297.618 370.504,302.99 370.504,309.618 L370.504,339.618 C370.504,346.245 367.894,351.618 364.675,351.618 L257.332,351.618 C254.113,351.618 251.504,346.245 251.504,339.618 L251.504,309.618 C251.504,302.99 254.113,297.618 257.332,297.618 z" fill-opacity="0" stroke="#4AF6C2" stroke-width="3"/>
    </g>
    <g>
      <path d="M716.884,172.504 L748.884,172.504 C755.512,172.504 760.884,177.876 760.884,184.504 L760.884,215.504 C760.884,222.131 755.512,227.504 748.884,227.504 L716.884,227.504 C710.257,227.504 704.884,222.131 704.884,215.504 L704.884,184.504 C704.884,177.876 710.257,172.504 716.884,172.504 z" fill="#F9A69A"/>
      <path d="M716.884,172.504 L748.884,172.504 C755.512,172.504 760.884,177.876 760.884,184.504 L760.884,215.504 C760.884,222.131 755.512,227.504 748.884,227.504 L716.884,227.504 C710.257,227.504 704.884,222.131 704.884,215.504 L704.884,184.504 C704.884,177.876 710.257,172.504 716.884,172.504 z" fill-opacity="0" stroke="#FA7561" stroke-width="2"/>
    </g>
    <g>
      <path d="M425.077,235.33 L457.077,235.33 C463.704,235.33 469.077,240.702 469.077,247.33 L469.077,278.33 C469.077,284.957 463.704,290.33 457.077,290.33 L425.077,290.33 C418.449,290.33 413.077,284.957 413.077,278.33 L413.077,247.33 C413.077,240.702 418.449,235.33 425.077,235.33 z" fill="#F9A69A"/>
      <path d="M425.077,235.33 L457.077,235.33 C463.704,235.33 469.077,240.702 469.077,247.33 L469.077,278.33 C469.077,284.957 463.704,290.33 457.077,290.33 L425.077,290.33 C418.449,290.33 413.077,284.957 413.077,278.33 L413.077,247.33 C413.077,240.702 418.449,235.33 425.077,235.33 z" fill-opacity="0" stroke="#FA7561" stroke-width="2"/>
    </g>
    <g>
      <path d="M393.504,298.618 L425.504,298.618 C432.131,298.618 437.504,303.99 437.504,310.618 L437.504,341.618 C437.504,348.245 432.131,353.618 425.504,353.618 L393.504,353.618 C386.876,353.618 381.504,348.245 381.504,341.618 L381.504,310.618 C381.504,303.99 386.876,298.618 393.504,298.618 z" fill="#A1D8F3"/>
      <path d="M393.504,298.618 L425.504,298.618 C432.131,298.618 437.504,303.99 437.504,310.618 L437.504,341.618 C437.504,348.245 432.131,353.618 425.504,353.618 L393.504,353.618 C386.876,353.618 381.504,348.245 381.504,341.618 L381.504,310.618 C381.504,303.99 386.876,298.618 393.504,298.618 z" fill-opacity="0" stroke="#58BFF4" stroke-width="3"/>
    </g>
    <g>
      <path d="M511.472,361.285 L743.297,361.285 C750.249,361.285 755.885,366.657 755.885,373.285 L755.885,403.285 C755.885,409.912 750.249,415.285 743.297,415.285 L511.472,415.285 C504.52,415.285 498.885,409.912 498.885,403.285 L498.885,373.285 C498.885,366.657 504.52,361.285 511.472,361.285 z" fill="#FAD598"/>
      <path d="M511.472,361.285 L743.297,361.285 C750.249,361.285 755.885,366.657 755.885,373.285 L755.885,403.285 C755.885,409.912 750.249,415.285 743.297,415.285 L511.472,415.285 C504.52,415.285 498.885,409.912 498.885,403.285 L498.885,373.285 C498.885,366.657 504.52,361.285 511.472,361.285 z" fill-opacity="0" stroke="#F5A525" stroke-width="3"/>
    </g>
    <path d="M295.703,258.923 L404.734,298.029" fill-opacity="0" stroke="#58BFF4" stroke-width="2"/>
    <g>
      <path d="M1044.885,395.618 L1044.885,395.618 L1044.885,396.618 L1044.885,396.618 L1044.885,395.618 z" fill="#FFFFFF"/>
      <path d="M1044.885,395.618 L1044.885,395.618 L1044.885,396.618 L1044.885,396.618 L1044.885,395.618 z" fill-opacity="0" stroke="#000000" stroke-width="1"/>
    </g>
    <path d="M314.884,299.618 L314.884,299.618" fill-opacity="0" stroke="#58BFF4" stroke-width="3"/>
    <text transform="matrix(1, 0, 0, 1, 628.052, 389.785)">
      <tspan x="-45.667" y="8.5" font-family="Helvetica-Bold" font-size="31" fill="#000000">Space</tspan>
    </text>
    <text transform="matrix(1, 0, 0, 1, 315.336, 327.618)">
      <tspan x="-45.667" y="8.5" font-family="Helvetica-Bold" font-size="31" fill="#000000">Shift</tspan>
    </text>
    <text transform="matrix(1, 0, 0, 1, 441.743, 263.33)">
      <tspan x="-13.167" y="10.5" font-family="Helvetica-Bold" font-size="31" fill="#000000">S</tspan>
    </text>
    <text transform="matrix(1, 0, 0, 1, 410.836, 325.96)">
      <tspan x="-13.167" y="10.5" font-family="Helvetica-Bold" font-size="31" fill="#000000">Z</tspan>
    </text>
    <text transform="matrix(1, 0, 0, 1, 735.217, 199.618)">
      <tspan x="-13.167" y="10.5" font-family="Helvetica-Bold" font-size="31" fill="#000000">P</tspan>
    </text>
    <text transform="matrix(1, 0, 0, 1, 885.217, 333.023)">
      <tspan x="-13.167" y="11.5" font-family="LucidaGrande" font-size="32" kerning="0" fill="#1F1F1F">↑</tspan>
    </text>
    <text transform="matrix(1, 0, 0, 1, 885.884, 397.69)">
      <tspan x="-13.167" y="11.5" font-family="LucidaGrande" font-size="32" kerning="0" fill="#1F1F1F">↓</tspan>
    </text>
    <text transform="matrix(1, 0, 0, 1, 716.384, 80.618)">
      <tspan x="-66" y="3.5" font-family="Helvetica-Bold" font-size="20" fill="#FFFFFF">Clear Penalty</tspan>
    </text>
    <text transform="matrix(1, 0, 0, 1, 745.884, 117.118)">
      <tspan x="-94.5" y="-13" font-family="Helvetica" font-size="15" fill="#FFFFFF">Use "P" if you don't think </tspan>
      <tspan x="-94.5" y="5" font-family="Helvetica" font-size="15" fill="#FFFFFF">you deserve the penalty</tspan>
    </text>
    <g>
      <g>
        <path d="M390.668,92.736 L556.668,92.736 C563.296,92.736 568.668,98.109 568.668,104.736 L568.668,167.736 C568.668,174.363 563.296,179.736 556.668,179.736 L390.668,179.736 C384.041,179.736 378.668,174.363 378.668,167.736 L378.668,104.736 C378.668,98.109 384.041,92.736 390.668,92.736 z" fill="#202636"/>
        <path d="M390.668,92.736 L556.668,92.736 C563.296,92.736 568.668,98.109 568.668,104.736 L568.668,167.736 C568.668,174.363 563.296,179.736 556.668,179.736 L390.668,179.736 C384.041,179.736 378.668,174.363 378.668,167.736 L378.668,104.736 C378.668,98.109 384.041,92.736 390.668,92.736 z" fill-opacity="0" stroke="#FA7561" stroke-width="2"/>
      </g>
      <g>
        <path d="M390.668,92.736 L556.668,92.736 C563.296,92.736 568.668,98.109 568.668,104.736 L568.668,167.736 C568.668,174.363 563.296,179.736 556.668,179.736 L390.668,179.736 C384.041,179.736 378.668,174.363 378.668,167.736 L378.668,104.736 C378.668,98.109 384.041,92.736 390.668,92.736 z" fill-opacity="0" stroke="#FA7561" stroke-width="2"/>
        <text transform="matrix(1, 0, 0, 1, 457.168, 118.736)">
          <tspan x="-66" y="3.5" font-family="Helvetica-Bold" font-size="20" fill="#FFFFFF">Penalty Spin</tspan>
        </text>
        <text transform="matrix(1, 0, 0, 1, 474.168, 155.236)">
          <tspan x="-82" y="-13" font-family="Helvetica" font-size="15" fill="#FFFFFF">Clear your penalties by </tspan>
          <tspan x="-82" y="5" font-family="Helvetica" font-size="15" fill="#FFFFFF">doing a 360</tspan>
          <tspan x="-3.594" y="5" font-family="Helvetica" font-size="15" kerning="0" fill="#FFFFFF">° </tspan>
          <tspan x="6.572" y="5" font-family="Helvetica" font-size="15" fill="#FFFFFF">spin</tspan>
        </text>
      </g>
    </g>
    <text transform="matrix(1, 0, 0, 1, 639.841, 489.791)">
      <tspan x="-96.047" y="-10.825" font-family="Helvetica-Bold" font-size="20" fill="#FFFFFF">Trim (Auto VMG)</tspan>
    </text>
    <text transform="matrix(1, 0, 0, 1, 644.318, 527.878)">
      <tspan x="-100.195" y="-23.696" font-family="Helvetica" font-size="15" fill="#FFFFFF">Hit space once and your sails </tspan>
      <tspan x="-100.195" y="-5.696" font-family="Helvetica" font-size="15" fill="#FFFFFF">stay trimmed and the boat </tspan>
      <tspan x="-100.195" y="12.304" font-family="Helvetica" font-size="15" fill="#FFFFFF">sails at Max VMG</tspan>
    </text>
    <path d="M630.62,414.554 L630.885,450.618" fill-opacity="0" stroke="#F5A525" stroke-width="2"/>
    <path d="M214.445,323.203 L248.403,321.99" fill-opacity="0" stroke="#4AF6C2" stroke-width="2" stroke-linecap="round"/>
    <g>
      <g>
        <path d="M31.712,273.607 L204.701,273.607 C211.608,273.607 217.207,279.186 217.207,286.067 L217.207,351.481 C217.207,358.362 211.608,363.941 204.701,363.941 L31.712,363.941 C24.805,363.941 19.207,358.362 19.207,351.481 L19.207,286.067 C19.207,279.186 24.805,273.607 31.712,273.607 z" fill="#232939"/>
        <path d="M31.712,273.607 L204.701,273.607 C211.608,273.607 217.207,279.186 217.207,286.067 L217.207,351.481 C217.207,358.362 211.608,363.941 204.701,363.941 L31.712,363.941 C24.805,363.941 19.207,358.362 19.207,351.481 L19.207,286.067 C19.207,279.186 24.805,273.607 31.712,273.607 z" fill-opacity="0" stroke="#4AF6C2" stroke-width="2"/>
      </g>
      <text transform="matrix(1, 0, 0, 1, 116.426, 309.941)">
        <tspan x="-82.5" y="-5.5" font-family="Helvetica-Bold" font-size="20" fill="#FFFFFF">Bear Away Hard</tspan>
      </text>
      <text transform="matrix(1, 0, 0, 1, 120.926, 337.441)">
        <tspan x="-86" y="-13" font-family="Helvetica" font-size="15" kerning="0" fill="#FFFFFF">Hold shift while hitting </tspan>
        <tspan x="-86" y="5" font-family="Helvetica" font-size="15" kerning="0" fill="#FFFFFF">arrow keys to turn harder</tspan>
      </text>
    </g>
    <g>
      <g>
        <path d="M180.814,163.346 L358.855,163.346 C365.963,163.346 371.725,169.196 371.725,176.413 L371.725,245.017 C371.725,252.234 365.963,258.085 358.855,258.085 L180.814,258.085 C173.706,258.085 167.944,252.234 167.944,245.017 L167.944,176.413 C167.944,169.196 173.706,163.346 180.814,163.346 z" fill="#202636"/>
        <path d="M180.814,163.346 L358.855,163.346 C365.963,163.346 371.725,169.196 371.725,176.413 L371.725,245.017 C371.725,252.234 365.963,258.085 358.855,258.085 L180.814,258.085 C173.706,258.085 167.944,252.234 167.944,245.017 L167.944,176.413 C167.944,169.196 173.706,163.346 180.814,163.346 z" fill-opacity="0" stroke="#58BFF4" stroke-width="2"/>
      </g>
      <text transform="matrix(1, 0, 0, 1, 269.871, 200.022)">
        <tspan x="-88.484" y="-6.657" font-family="Helvetica-Bold" font-size="20" fill="#FFFFFF">Zoom</tspan>
      </text>
      <text transform="matrix(1, 0, 0, 1, 278.987, 228.821)">
        <tspan x="-96.528" y="-14.322" font-family="Helvetica" font-size="15" kerning="0" fill="#FFFFFF">Toggle between "birdseye" </tspan>
        <tspan x="-96.528" y="3.678" font-family="Helvetica" font-size="15" kerning="0" fill="#FFFFFF">and "follow" mode</tspan>
      </text>
    </g>
    <text transform="matrix(1, 0, 0, 1, 1034.555, 294.734)">
      <tspan x="-66" y="3.5" font-family="Helvetica-Bold" font-size="20" fill="#FFFFFF">Head Up</tspan>
    </text>
    <text transform="matrix(1, 0, 0, 1, 1058.555, 331.234)">
      <tspan x="-89" y="-13" font-family="Helvetica" font-size="15" fill="#FFFFFF">Head up 5</tspan>
      <tspan x="-19.779" y="-13" font-family="Helvetica" font-size="15" kerning="0" fill="#FFFFFF">° </tspan>
      <tspan x="-89" y="5" font-family="Helvetica" font-size="15" kerning="0" fill="#FFFFFF">(hold shift to turn 20</tspan>
      <tspan x="43.576" y="5" font-family="Helvetica" font-size="15" kerning="0" fill="#FFFFFF">°</tspan>
      <tspan x="49.574" y="5" font-family="Helvetica" font-size="15" kerning="0" fill="#FFFFFF">)</tspan>
    </text>
    <text transform="matrix(1, 0, 0, 1, 1023.385, 418.618)">
      <tspan x="-66" y="3.5" font-family="Helvetica-Bold" font-size="20" fill="#FFFFFF">Head Down</tspan>
    </text>
    <text transform="matrix(1, 0, 0, 1, 1047.385, 455.118)">
      <tspan x="-89" y="-13" font-family="Helvetica" font-size="15" fill="#FFFFFF">Head down 5</tspan>
      <tspan x="-0.604" y="-13" font-family="Helvetica" font-size="15" kerning="0" fill="#FFFFFF">° </tspan>
      <tspan x="-89" y="5" font-family="Helvetica" font-size="15" kerning="0" fill="#FFFFFF">(hold shift to turn 20</tspan>
      <tspan x="43.576" y="5" font-family="Helvetica" font-size="15" kerning="0" fill="#FFFFFF">°</tspan>
      <tspan x="49.574" y="5" font-family="Helvetica" font-size="15" kerning="0" fill="#FFFFFF">)</tspan>
    </text>
    <g>
      <path d="M510.647,298.477 L542.647,298.477 C549.275,298.477 554.647,303.849 554.647,310.477 L554.647,341.477 C554.647,348.104 549.275,353.477 542.647,353.477 L510.647,353.477 C504.02,353.477 498.647,348.104 498.647,341.477 L498.647,310.477 C498.647,303.849 504.02,298.477 510.647,298.477 z" fill="#D2DDFF"/>
      <path d="M510.647,298.477 L542.647,298.477 C549.275,298.477 554.647,303.849 554.647,310.477 L554.647,341.477 C554.647,348.104 549.275,353.477 542.647,353.477 L510.647,353.477 C504.02,353.477 498.647,348.104 498.647,341.477 L498.647,310.477 C498.647,303.849 504.02,298.477 510.647,298.477 z" fill-opacity="0" stroke="#9FB7FF" stroke-width="3"/>
    </g>
    <text transform="matrix(1, 0, 0, 1, 528.217, 326.951)">
      <tspan x="-13.167" y="10.5" font-family="Helvetica-Bold" font-size="31" fill="#000000">C</tspan>
    </text>
    <g>
      <g>
        <path d="M263.674,395.285 L426.762,395.285 C433.273,395.285 438.551,400.5 438.551,406.933 L438.551,468.089 C438.551,474.522 433.273,479.738 426.762,479.738 L263.674,479.738 C257.163,479.738 251.884,474.522 251.884,468.089 L251.884,406.933 C251.884,400.5 257.163,395.285 263.674,395.285 z" fill="#232939"/>
        <path d="M263.674,395.285 L426.762,395.285 C433.273,395.285 438.551,400.5 438.551,406.933 L438.551,468.089 C438.551,474.522 433.273,479.738 426.762,479.738 L263.674,479.738 C257.163,479.738 251.884,474.522 251.884,468.089 L251.884,406.933 C251.884,400.5 257.163,395.285 263.674,395.285 z" fill-opacity="0" stroke="#9FB7FF" stroke-width="2"/>
      </g>
      <text transform="matrix(1, 0, 0, 1, 344.456, 428.944)">
        <tspan x="-77" y="-4.032" font-family="Helvetica-Bold" font-size="20" fill="#FFFFFF">Jump to Chat</tspan>
      </text>
      <text transform="matrix(1, 0, 0, 1, 348.656, 454.796)">
        <tspan x="-80.267" y="-11.322" font-family="Helvetica" font-size="15" kerning="0" fill="#FFFFFF">Quick jump to chat, esc. </tspan>
        <tspan x="-80.267" y="6.678" font-family="Helvetica" font-size="15" kerning="0" fill="#FFFFFF">to quickly jump back</tspan>
      </text>
    </g>
    <g>
      <path d="M782.942,232.5 L901.574,232.5 C905.131,232.5 908.015,237.972 908.015,244.722 L908.015,275.278 C908.015,282.028 905.131,287.5 901.574,287.5 L782.942,287.5 C779.384,287.5 776.5,282.028 776.5,275.278 L776.5,244.722 C776.5,237.972 779.384,232.5 782.942,232.5 z" fill="#FAD598"/>
      <path d="M782.942,232.5 L901.574,232.5 C905.131,232.5 908.015,237.972 908.015,244.722 L908.015,275.278 C908.015,282.028 905.131,287.5 901.574,287.5 L782.942,287.5 C779.384,287.5 776.5,282.028 776.5,275.278 L776.5,244.722 C776.5,237.972 779.384,232.5 782.942,232.5 z" fill-opacity="0" stroke="#F5A525" stroke-width="3"/>
    </g>
    <text transform="matrix(1, 0, 0, 1, 847.187, 262.938)">
      <tspan x="-53.613" y="6.429" font-family="Helvetica-Bold" font-size="31" fill="#000000">Return</tspan>
    </text>
    <g>
      <g>
        <path d="M876.5,98.5 L1042.5,98.5 C1049.127,98.5 1054.5,103.873 1054.5,110.5 L1054.5,173.5 C1054.5,180.127 1049.127,185.5 1042.5,185.5 L876.5,185.5 C869.873,185.5 864.5,180.127 864.5,173.5 L864.5,110.5 C864.5,103.873 869.873,98.5 876.5,98.5 z" fill="#202636"/>
        <path d="M876.5,98.5 L1042.5,98.5 C1049.127,98.5 1054.5,103.873 1054.5,110.5 L1054.5,173.5 C1054.5,180.127 1049.127,185.5 1042.5,185.5 L876.5,185.5 C869.873,185.5 864.5,180.127 864.5,173.5 L864.5,110.5 C864.5,103.873 869.873,98.5 876.5,98.5 z" fill-opacity="0" stroke="#F5A525" stroke-width="2"/>
      </g>
      <text transform="matrix(1, 0, 0, 1, 944, 124.5)">
        <tspan x="-66" y="3.5" font-family="Helvetica-Bold" font-size="20" fill="#FFFFFF">Tack/Gybe</tspan>
      </text>
      <text transform="matrix(1, 0, 0, 1, 968, 161)">
        <tspan x="-89" y="-13" font-family="Helvetica" font-size="15" kerning="0" fill="#FFFFFF">Hit return to go through </tspan>
        <tspan x="-89" y="5" font-family="Helvetica" font-size="15" kerning="0" fill="#FFFFFF">the wind</tspan>
      </text>
    </g>
    <path d="M851.5,231.5 L960.5,185.5" fill-opacity="0" stroke="#F5A525" stroke-width="2"/>
  </g>
  <g id="Layer_2" display="none">
    <g>
      <path d="M116.5,369.044 L282.5,369.044 C289.127,369.044 294.5,374.416 294.5,381.044 L294.5,444.044 C294.5,450.671 289.127,456.044 282.5,456.044 L116.5,456.044 C109.873,456.044 104.5,450.671 104.5,444.044 L104.5,381.044 C104.5,374.416 109.873,369.044 116.5,369.044 z" fill="#0B1223"/>
      <path d="M116.5,369.044 L282.5,369.044 C289.127,369.044 294.5,374.416 294.5,381.044 L294.5,444.044 C294.5,450.671 289.127,456.044 282.5,456.044 L116.5,456.044 C109.873,456.044 104.5,450.671 104.5,444.044 L104.5,381.044 C104.5,374.416 109.873,369.044 116.5,369.044 z" fill-opacity="0" stroke="#4AF6C2" stroke-width="2"/>
    </g>
    <g>
      <path d="M404.606,437.044 L606.427,437.044 C614.484,437.044 621.016,443.584 621.016,451.652 L621.016,528.346 C621.016,536.414 614.484,542.954 606.427,542.954 L404.606,542.954 C396.548,542.954 390.016,536.414 390.016,528.346 L390.016,451.652 C390.016,443.584 396.548,437.044 404.606,437.044 z" fill="#0B1223"/>
      <path d="M404.606,437.044 L606.427,437.044 C614.484,437.044 621.016,443.584 621.016,451.652 L621.016,528.346 C621.016,536.414 614.484,542.954 606.427,542.954 L404.606,542.954 C396.548,542.954 390.016,536.414 390.016,528.346 L390.016,451.652 C390.016,443.584 396.548,437.044 404.606,437.044 z" fill-opacity="0" stroke="#F5A525" stroke-width="2"/>
    </g>
    <g>
      <path d="M681.5,341.044 L713.5,341.044 C720.127,341.044 725.5,346.416 725.5,353.044 L725.5,384.044 C725.5,390.671 720.127,396.044 713.5,396.044 L681.5,396.044 C674.873,396.044 669.5,390.671 669.5,384.044 L669.5,353.044 C669.5,346.416 674.873,341.044 681.5,341.044 z" fill="#FAD598"/>
      <path d="M681.5,341.044 L713.5,341.044 C720.127,341.044 725.5,346.416 725.5,353.044 L725.5,384.044 C725.5,390.671 720.127,396.044 713.5,396.044 L681.5,396.044 C674.873,396.044 669.5,390.671 669.5,384.044 L669.5,353.044 C669.5,346.416 674.873,341.044 681.5,341.044 z" fill-opacity="0" stroke="#F5A525" stroke-width="2"/>
    </g>
    <g>
      <path d="M680.5,280.044 L712.5,280.044 C719.127,280.044 724.5,285.416 724.5,292.044 L724.5,323.044 C724.5,329.671 719.127,335.044 712.5,335.044 L680.5,335.044 C673.873,335.044 668.5,329.671 668.5,323.044 L668.5,292.044 C668.5,285.416 673.873,280.044 680.5,280.044 z" fill="#FAD598"/>
      <path d="M680.5,280.044 L712.5,280.044 C719.127,280.044 724.5,285.416 724.5,292.044 L724.5,323.044 C724.5,329.671 719.127,335.044 712.5,335.044 L680.5,335.044 C673.873,335.044 668.5,329.671 668.5,323.044 L668.5,292.044 C668.5,285.416 673.873,280.044 680.5,280.044 z" fill-opacity="0" stroke="#F5A525" stroke-width="2"/>
    </g>
    <g>
      <path d="M200.329,285.044 L307.671,285.044 C310.89,285.044 313.5,290.416 313.5,297.044 L313.5,327.044 C313.5,333.671 310.89,339.044 307.671,339.044 L200.329,339.044 C197.11,339.044 194.5,333.671 194.5,327.044 L194.5,297.044 C194.5,290.416 197.11,285.044 200.329,285.044 z" fill="#4AF6C2" fill-opacity="0.5"/>
      <path d="M200.329,285.044 L307.671,285.044 C310.89,285.044 313.5,290.416 313.5,297.044 L313.5,327.044 C313.5,333.671 310.89,339.044 307.671,339.044 L200.329,339.044 C197.11,339.044 194.5,333.671 194.5,327.044 L194.5,297.044 C194.5,290.416 197.11,285.044 200.329,285.044 z" fill-opacity="0" stroke="#4AF6C2" stroke-width="3"/>
    </g>
    <g>
      <path d="M567.5,183.044 L599.5,183.044 C606.127,183.044 611.5,188.416 611.5,195.044 L611.5,226.044 C611.5,232.671 606.127,238.044 599.5,238.044 L567.5,238.044 C560.873,238.044 555.5,232.671 555.5,226.044 L555.5,195.044 C555.5,188.416 560.873,183.044 567.5,183.044 z" fill="#FA7561" fill-opacity="0.467"/>
      <path d="M567.5,183.044 L599.5,183.044 C606.127,183.044 611.5,188.416 611.5,195.044 L611.5,226.044 C611.5,232.671 606.127,238.044 599.5,238.044 L567.5,238.044 C560.873,238.044 555.5,232.671 555.5,226.044 L555.5,195.044 C555.5,188.416 560.873,183.044 567.5,183.044 z" fill-opacity="0" stroke="#FA7561" stroke-width="2"/>
    </g>
    <g>
      <path d="M379.5,224.044 L411.5,224.044 C418.127,224.044 423.5,229.416 423.5,236.044 L423.5,267.044 C423.5,273.671 418.127,279.044 411.5,279.044 L379.5,279.044 C372.873,279.044 367.5,273.671 367.5,267.044 L367.5,236.044 C367.5,229.416 372.873,224.044 379.5,224.044 z" fill="#FA7561" fill-opacity="0.467"/>
      <path d="M379.5,224.044 L411.5,224.044 C418.127,224.044 423.5,229.416 423.5,236.044 L423.5,267.044 C423.5,273.671 418.127,279.044 411.5,279.044 L379.5,279.044 C372.873,279.044 367.5,273.671 367.5,267.044 L367.5,236.044 C367.5,229.416 372.873,224.044 379.5,224.044 z" fill-opacity="0" stroke="#FA7561" stroke-width="2"/>
    </g>
    <g>
      <path d="M336.5,286.044 L368.5,286.044 C375.127,286.044 380.5,291.416 380.5,298.044 L380.5,329.044 C380.5,335.671 375.127,341.044 368.5,341.044 L336.5,341.044 C329.873,341.044 324.5,335.671 324.5,329.044 L324.5,298.044 C324.5,291.416 329.873,286.044 336.5,286.044 z" fill="#58BFF4" fill-opacity="0.47"/>
      <path d="M336.5,286.044 L368.5,286.044 C375.127,286.044 380.5,291.416 380.5,298.044 L380.5,329.044 C380.5,335.671 375.127,341.044 368.5,341.044 L336.5,341.044 C329.873,341.044 324.5,335.671 324.5,329.044 L324.5,298.044 C324.5,291.416 329.873,286.044 336.5,286.044 z" fill-opacity="0" stroke="#58BFF4" stroke-width="3"/>
    </g>
    <g>
      <path d="M386.5,346.044 L607.5,346.044 C614.127,346.044 619.5,351.416 619.5,358.044 L619.5,388.044 C619.5,394.671 614.127,400.044 607.5,400.044 L386.5,400.044 C379.873,400.044 374.5,394.671 374.5,388.044 L374.5,358.044 C374.5,351.416 379.873,346.044 386.5,346.044 z" fill="#F5A525" fill-opacity="0.47"/>
      <path d="M386.5,346.044 L607.5,346.044 C614.127,346.044 619.5,351.416 619.5,358.044 L619.5,388.044 C619.5,394.671 614.127,400.044 607.5,400.044 L386.5,400.044 C379.873,400.044 374.5,394.671 374.5,388.044 L374.5,358.044 C374.5,351.416 379.873,346.044 386.5,346.044 z" fill-opacity="0" stroke="#F5A525" stroke-width="3"/>
    </g>
    <path d="M358.618,172.092 L392.698,223.519" fill-opacity="0" stroke="#FA7561" stroke-width="2" stroke-linecap="round"/>
    <path d="M586.5,183.044 L586.5,130.044" fill-opacity="0" stroke="#FA7561" stroke-width="2"/>
    <path d="M255.5,340.043 L198.044,368.588" fill-opacity="0" stroke="#4AF6C2" stroke-width="2" stroke-linecap="round"/>
    <path d="M256.678,216.018 L349.5,286.043" fill-opacity="0" stroke="#58BFF4" stroke-width="2"/>
    <path d="M696.5,280.044 L736.566,240.098" fill-opacity="0" stroke="#F5A525" stroke-width="2"/>
    <path d="M741.5,444.044 L698.5,396.044" fill-opacity="0" stroke="#F5A525" stroke-width="2"/>
    <g>
      <path d="M747.5,447.044 L747.5,447.044 L747.5,448.044 L747.5,448.044 L747.5,447.044 z" fill="#FFFFFF"/>
      <path d="M747.5,447.044 L747.5,447.044 L747.5,448.044 L747.5,448.044 L747.5,447.044 z" fill-opacity="0" stroke="#000000" stroke-width="1"/>
    </g>
    <path d="M206.5,287.044 L206.5,287.044" fill-opacity="0" stroke="#58BFF4" stroke-width="3"/>
    <text transform="matrix(1, 0, 0, 1, 495.667, 374.544)">
      <tspan x="-45.667" y="8.5" font-family="Helvetica-Bold" font-size="31" fill="#000000">Space</tspan>
    </text>
    <text transform="matrix(1, 0, 0, 1, 258.333, 315.044)">
      <tspan x="-45.667" y="8.5" font-family="Helvetica-Bold" font-size="31" fill="#000000">Shift</tspan>
    </text>
    <text transform="matrix(1, 0, 0, 1, 396.833, 252.044)">
      <tspan x="-13.167" y="10.5" font-family="Helvetica-Bold" font-size="31" fill="#000000">S</tspan>
    </text>
    <text transform="matrix(1, 0, 0, 1, 353.833, 316.044)">
      <tspan x="-13.167" y="10.5" font-family="Helvetica-Bold" font-size="31" fill="#000000">Z</tspan>
    </text>
    <text transform="matrix(1, 0, 0, 1, 585.833, 211.044)">
      <tspan x="-13.167" y="10.5" font-family="Helvetica-Bold" font-size="31" fill="#000000">P</tspan>
    </text>
    <text transform="matrix(1, 0, 0, 1, 698.833, 308.044)">
      <tspan x="-13.167" y="11.5" font-family="LucidaGrande" font-size="32" kerning="0" fill="#1F1F1F">↑</tspan>
    </text>
    <text transform="matrix(1, 0, 0, 1, 698.833, 370.044)">
      <tspan x="-13.167" y="11.5" font-family="LucidaGrande" font-size="32" kerning="0" fill="#1F1F1F">↓</tspan>
    </text>
    <g>
      <text transform="matrix(1, 0, 0, 1, 568, 68.044)">
        <tspan x="-66" y="3.5" font-family="Helvetica-Bold" font-size="20" fill="#000000">Clear Penalty</tspan>
      </text>
      <text transform="matrix(1, 0, 0, 1, 597.5, 104.544)">
        <tspan x="-94.5" y="-13" font-family="Helvetica" font-size="15" fill="#000000">Use this if you don't think </tspan>
        <tspan x="-94.5" y="5" font-family="Helvetica" font-size="15" fill="#000000">you deserve the penalty</tspan>
      </text>
      <path d="M501.5,42.044 L667.5,42.044 C674.127,42.044 679.5,47.416 679.5,54.044 L679.5,117.044 C679.5,123.671 674.127,129.044 667.5,129.044 L501.5,129.044 C494.873,129.044 489.5,123.671 489.5,117.044 L489.5,54.044 C489.5,47.416 494.873,42.044 501.5,42.044 z" fill-opacity="0" stroke="#FA7561" stroke-width="2"/>
    </g>
    <g>
      <path d="M282.5,85.044 L448.5,85.044 C455.127,85.044 460.5,90.416 460.5,97.044 L460.5,160.044 C460.5,166.671 455.127,172.044 448.5,172.044 L282.5,172.044 C275.873,172.044 270.5,166.671 270.5,160.044 L270.5,97.044 C270.5,90.416 275.873,85.044 282.5,85.044 z" fill-opacity="0" stroke="#FA7561" stroke-width="2"/>
      <text transform="matrix(1, 0, 0, 1, 349, 111.044)">
        <tspan x="-66" y="3.5" font-family="Helvetica-Bold" font-size="20" fill="#000000">Penalty Spin</tspan>
      </text>
      <path d="M282.5,85.044 L448.5,85.044 C455.127,85.044 460.5,90.416 460.5,97.044 L460.5,160.044 C460.5,166.671 455.127,172.044 448.5,172.044 L282.5,172.044 C275.873,172.044 270.5,166.671 270.5,160.044 L270.5,97.044 C270.5,90.416 275.873,85.044 282.5,85.044 z" fill-opacity="0" stroke="#FA7561" stroke-width="2"/>
      <text transform="matrix(1, 0, 0, 1, 366, 147.544)">
        <tspan x="-82" y="-13" font-family="Helvetica" font-size="15" fill="#000000">Clear your penalties by </tspan>
        <tspan x="-82" y="5" font-family="Helvetica" font-size="15" fill="#000000">doing a 360</tspan>
        <tspan x="-3.594" y="5" font-family="Helvetica" font-size="15" kerning="0" fill="#000000">° </tspan>
        <tspan x="6.572" y="5" font-family="Helvetica" font-size="15" fill="#000000">spin</tspan>
      </text>
    </g>
    <text transform="matrix(1, 0, 0, 1, 508.456, 476.216)">
      <tspan x="-96.047" y="-10.825" font-family="Helvetica-Bold" font-size="20" fill="#FFFFFF">Trim (Auto VMG)</tspan>
    </text>
    <text transform="matrix(1, 0, 0, 1, 512.933, 514.304)">
      <tspan x="-100.195" y="-23.696" font-family="Helvetica" font-size="15" fill="#FFFFFF">Hit space once and your sails </tspan>
      <tspan x="-100.195" y="-5.696" font-family="Helvetica" font-size="15" fill="#FFFFFF">stay trimmed and the boat </tspan>
      <tspan x="-100.195" y="12.304" font-family="Helvetica" font-size="15" fill="#FFFFFF">sails at Max VMG</tspan>
    </text>
    <path d="M499.235,400.979 L499.5,437.044" fill-opacity="0" stroke="#F5A525" stroke-width="2"/>
    <text transform="matrix(1, 0, 0, 1, 199.5, 404.043)">
      <tspan x="-82.5" y="-5.5" font-family="Helvetica-Bold" font-size="20" fill="#FFFFFF">Bear Away Hard</tspan>
    </text>
    <text transform="matrix(1, 0, 0, 1, 204, 431.544)">
      <tspan x="-86" y="-13" font-family="Helvetica" font-size="15" kerning="0" fill="#FFFFFF">Hold shift while hitting </tspan>
      <tspan x="-86" y="5" font-family="Helvetica" font-size="15" kerning="0" fill="#FFFFFF">arrow keys to turn harder</tspan>
    </text>
    <g>
      <text transform="matrix(1, 0, 0, 1, 154.376, 209.044)">
        <tspan x="-89.304" y="-5.5" font-family="Helvetica-Bold" font-size="20" fill="#000000">Zoom</tspan>
      </text>
      <text transform="matrix(1, 0, 0, 1, 163.577, 236.544)">
        <tspan x="-97.423" y="-13" font-family="Helvetica" font-size="15" kerning="0" fill="#000000">Toggle between "birdseye" </tspan>
        <tspan x="-97.423" y="5" font-family="Helvetica" font-size="15" kerning="0" fill="#000000">and "follow" mode</tspan>
      </text>
      <path d="M64.49,174.044 L244.18,174.044 C251.354,174.044 257.17,179.416 257.17,186.044 L257.17,249.044 C257.17,255.671 251.354,261.044 244.18,261.044 L64.49,261.044 C57.316,261.044 51.5,255.671 51.5,249.044 L51.5,186.044 C51.5,179.416 57.316,174.044 64.49,174.044 z" fill-opacity="0" stroke="#58BFF4" stroke-width="2"/>
    </g>
    <g>
      <text transform="matrix(1, 0, 0, 1, 722, 179.044)">
        <tspan x="-66" y="3.5" font-family="Helvetica-Bold" font-size="20" fill="#000000">Head up</tspan>
      </text>
      <text transform="matrix(1, 0, 0, 1, 746, 215.544)">
        <tspan x="-89" y="-13" font-family="Helvetica" font-size="15" fill="#000000">Head up 5</tspan>
        <tspan x="-19.779" y="-13" font-family="Helvetica" font-size="15" kerning="0" fill="#000000">° </tspan>
        <tspan x="-89" y="5" font-family="Helvetica" font-size="15" kerning="0" fill="#000000">(hold shift to turn harder)</tspan>
      </text>
      <path d="M655.5,153.044 L821.5,153.044 C828.127,153.044 833.5,158.416 833.5,165.044 L833.5,228.044 C833.5,234.671 828.127,240.044 821.5,240.044 L655.5,240.044 C648.873,240.044 643.5,234.671 643.5,228.044 L643.5,165.044 C643.5,158.416 648.873,153.044 655.5,153.044 z" fill-opacity="0" stroke="#F5A525" stroke-width="2"/>
    </g>
    <g>
      <text transform="matrix(1, 0, 0, 1, 726, 470.044)">
        <tspan x="-66" y="3.5" font-family="Helvetica-Bold" font-size="20" fill="#000000">Head up</tspan>
      </text>
      <text transform="matrix(1, 0, 0, 1, 750, 506.544)">
        <tspan x="-89" y="-13" font-family="Helvetica" font-size="15" fill="#000000">Head up 5</tspan>
        <tspan x="-19.779" y="-13" font-family="Helvetica" font-size="15" kerning="0" fill="#000000">° </tspan>
        <tspan x="-89" y="5" font-family="Helvetica" font-size="15" kerning="0" fill="#000000">(hold shift to turn harder)</tspan>
      </text>
      <path d="M659.5,444.044 L825.5,444.044 C832.127,444.044 837.5,449.416 837.5,456.044 L837.5,519.044 C837.5,525.671 832.127,531.044 825.5,531.044 L659.5,531.044 C652.873,531.044 647.5,525.671 647.5,519.044 L647.5,456.044 C647.5,449.416 652.873,444.044 659.5,444.044 z" fill-opacity="0" stroke="#F5A525" stroke-width="2"/>
    </g>
  </g>
</svg>
